<svg data-v-423bf9ae="" xmlns="http://www.w3.org/2000/svg" viewBox="0 0 455 107" class="iconLeft"><!----><!----><!----><g data-v-423bf9ae="" id="47930796-390c-4d9b-ae13-e954ebc23ca6" fill="#FFFFFF" transform="matrix(5.830903811703725,0,0,5.830903811703725,95.72577994925166,-4.019881222698075)"><path d="M6.38 11.66L4.76 10.72L2.48 10.72L2.48 9.10L6.24 9.10L6.24 7.88L2.74 7.88L1.12 8.82L1.12 11.00L2.74 11.94L5.03 11.94L5.03 13.66L1.12 13.66L1.12 14.88L4.76 14.88L6.38 13.94ZM14.15 13.66L9.98 13.66L9.98 11.86L14.15 11.86L14.15 8.75L12.53 7.81L10.25 7.81L8.62 8.75L8.62 13.94L10.25 14.88L14.15 14.88ZM9.98 9.03L12.80 9.03L12.80 10.64L9.98 10.64ZM10.09 6.62L11.21 6.62L13.23 4.83L11.41 4.83ZM17.47 12.01L20.29 12.01L20.29 13.73L17.47 13.73ZM17.74 14.95L19.29 14.95L20.29 14.38L21.28 14.95L21.64 14.95L21.64 8.82L20.02 7.88L16.81 7.88L16.81 9.10L20.29 9.10L20.29 10.79L17.74 10.79L16.11 11.73L16.11 14.01ZM25.51 7.81L23.88 8.75L23.88 14.01L25.51 14.95L27.62 14.95L28.62 14.38L28.95 14.95L29.97 14.95L29.97 4.66L28.62 4.66L28.62 8.39L27.62 7.81ZM28.62 13.73L25.24 13.73L25.24 9.03L28.62 9.03ZM33.29 12.01L36.11 12.01L36.11 13.73L33.29 13.73ZM33.56 14.95L35.11 14.95L36.11 14.38L37.10 14.95L37.46 14.95L37.46 8.82L35.84 7.88L32.63 7.88L32.63 9.10L36.11 9.10L36.11 10.79L33.56 10.79L31.93 11.73L31.93 14.01ZM45.65 8.75L44.03 7.81L42.06 7.81L41.06 8.39L40.73 7.81L39.70 7.81L39.70 14.88L41.06 14.88L41.06 9.03L44.30 9.03L44.30 14.88L45.65 14.88ZM49.52 7.81L47.89 8.75L47.89 14.01L49.52 14.95L51.63 14.95L52.63 14.38L52.96 14.95L53.98 14.95L53.98 4.66L52.63 4.66L52.63 8.39L51.63 7.81ZM52.63 13.73L49.25 13.73L49.25 9.03L52.63 9.03ZM57.30 12.01L60.12 12.01L60.12 13.73L57.30 13.73ZM57.57 14.95L59.12 14.95L60.12 14.38L61.11 14.95L61.47 14.95L61.47 8.82L59.85 7.88L56.64 7.88L56.64 9.10L60.12 9.10L60.12 10.79L57.57 10.79L55.94 11.73L55.94 14.01Z"></path></g><!----><g data-v-423bf9ae="" id="6b9d5ac7-c9d7-4261-9b5e-39e04912f54c" transform="matrix(1.0868111504448785,0,0,1.0868111504448785,-13.255261890115804,-0.23894260335429607)" stroke="none" fill="#307AD4"><g clip-rule="evenodd"><path d="M12.983 10.59l17.018 88.223-5.872-59.049 29.021-1.892-.054-9.883L64.549 1 53.622 18.977z"></path><path d="M59.389 54.548l5.16-53.541-8.74 39.716-19.612 1.045 1.57 20.462-7.766 36.583 12.057-39.899z"></path><path d="M62.8 67.182l.549-10.453-15.979 3.755-.032 11.797-17.337 26.532 21.68-27.616zM65.711 62.394l14.841-4.731 1.509-12.532-15.899 2.095zM72.07 44.502l10.988-1.417 1.581-10.278-8.079-.373L64.549 1l8.43 30.967z"></path><path d="M87.413 31.294l1.256-9.506-9.544-2.694L64.549 1l14.483 22.437-.422 7z"></path></g></g><!----></svg>